<svg width="205" height="56" viewBox="0 0 205 56" fill="none" xmlns="http://www.w3.org/2000/svg">
<path d="M42.5284 39V9.90909H54.1761C56.3163 9.90909 58.1013 10.2263 59.5312 10.8608C60.9612 11.4953 62.036 12.3759 62.7557 13.5028C63.4754 14.6203 63.8352 15.9081 63.8352 17.3665C63.8352 18.5028 63.608 19.5019 63.1534 20.3636C62.6989 21.2159 62.0739 21.9167 61.2784 22.4659C60.4924 23.0057 59.5928 23.3892 58.5795 23.6165V23.9006C59.6875 23.9479 60.7244 24.2604 61.6903 24.8381C62.6657 25.4157 63.4564 26.2254 64.0625 27.267C64.6686 28.2992 64.9716 29.5303 64.9716 30.9602C64.9716 32.5038 64.5881 33.8816 63.821 35.0938C63.0634 36.2964 61.9413 37.2481 60.4545 37.9489C58.9678 38.6496 57.1354 39 54.9574 39H42.5284ZM48.679 33.9716H53.6932C55.4072 33.9716 56.6572 33.6449 57.4432 32.9915C58.2292 32.3286 58.6222 31.4479 58.6222 30.3494C58.6222 29.5445 58.428 28.8343 58.0398 28.2188C57.6515 27.6032 57.0975 27.1203 56.3778 26.7699C55.6676 26.4195 54.8201 26.2443 53.8352 26.2443H48.679V33.9716ZM48.679 22.0824H53.2386C54.0814 22.0824 54.8295 21.9356 55.483 21.642C56.1458 21.339 56.6667 20.9129 57.0455 20.3636C57.4337 19.8144 57.6278 19.1562 57.6278 18.3892C57.6278 17.3381 57.2538 16.4905 56.5057 15.8466C55.767 15.2027 54.7159 14.8807 53.3523 14.8807H48.679V22.0824ZM68.8601 39V17.1818H74.9112V39H68.8601ZM71.8999 14.3693C71.0002 14.3693 70.2285 14.071 69.5845 13.4744C68.95 12.8684 68.6328 12.1439 68.6328 11.3011C68.6328 10.4678 68.95 9.75284 69.5845 9.15625C70.2285 8.55019 71.0002 8.24716 71.8999 8.24716C72.7995 8.24716 73.5665 8.55019 74.201 9.15625C74.8449 9.75284 75.1669 10.4678 75.1669 11.3011C75.1669 12.1439 74.8449 12.8684 74.201 13.4744C73.5665 14.071 72.7995 14.3693 71.8999 14.3693ZM91.3636 17.1818V21.7273H78.2244V17.1818H91.3636ZM81.2074 11.9545H87.2585V32.2955C87.2585 32.8542 87.3438 33.2898 87.5142 33.6023C87.6847 33.9053 87.9214 34.1184 88.2244 34.2415C88.5369 34.3646 88.8968 34.4261 89.304 34.4261C89.5881 34.4261 89.8722 34.4025 90.1562 34.3551C90.4403 34.2983 90.6581 34.2557 90.8097 34.2273L91.7614 38.7301C91.4583 38.8248 91.0322 38.9337 90.483 39.0568C89.9337 39.1894 89.2661 39.2699 88.4801 39.2983C87.0218 39.3551 85.7434 39.161 84.6449 38.7159C83.5559 38.2708 82.7083 37.5795 82.1023 36.642C81.4962 35.7045 81.1979 34.5208 81.2074 33.0909V11.9545Z" fill="#E04B0B"/>
<path d="M121.087 20.0938H114.865C114.751 19.2888 114.519 18.5739 114.169 17.9489C113.819 17.3144 113.369 16.7746 112.82 16.3295C112.27 15.8845 111.636 15.5436 110.916 15.3068C110.206 15.0701 109.434 14.9517 108.601 14.9517C107.095 14.9517 105.784 15.3258 104.666 16.0739C103.549 16.8125 102.682 17.892 102.067 19.3125C101.451 20.7235 101.143 22.4375 101.143 24.4545C101.143 26.5284 101.451 28.2708 102.067 29.6818C102.692 31.0928 103.563 32.1581 104.68 32.8778C105.798 33.5975 107.09 33.9574 108.558 33.9574C109.382 33.9574 110.144 33.8485 110.845 33.6307C111.555 33.4129 112.185 33.0956 112.734 32.679C113.284 32.2528 113.738 31.7367 114.098 31.1307C114.467 30.5246 114.723 29.8333 114.865 29.0568L121.087 29.0852C120.926 30.4205 120.523 31.7083 119.879 32.9489C119.245 34.1799 118.388 35.2831 117.308 36.2585C116.238 37.2244 114.96 37.9915 113.473 38.5597C111.996 39.1184 110.324 39.3977 108.459 39.3977C105.864 39.3977 103.544 38.8106 101.499 37.6364C99.4626 36.4621 97.8527 34.7623 96.669 32.5369C95.4948 30.3116 94.9077 27.6174 94.9077 24.4545C94.9077 21.2822 95.5043 18.5833 96.6974 16.358C97.8906 14.1326 99.5099 12.4375 101.555 11.2727C103.601 10.0985 105.902 9.51136 108.459 9.51136C110.144 9.51136 111.707 9.74811 113.146 10.2216C114.595 10.6951 115.878 11.3864 116.996 12.2955C118.113 13.1951 119.022 14.2983 119.723 15.6051C120.433 16.9119 120.888 18.4081 121.087 20.0938ZM131.435 26.3864V39H125.384V9.90909H131.264V21.0312H131.52C132.012 19.7434 132.808 18.7348 133.906 18.0057C135.005 17.267 136.383 16.8977 138.04 16.8977C139.555 16.8977 140.876 17.2292 142.003 17.892C143.139 18.5455 144.02 19.4877 144.645 20.7188C145.279 21.9403 145.592 23.4034 145.582 25.108V39H139.531V26.1875C139.541 24.8428 139.2 23.7964 138.509 23.0483C137.827 22.3002 136.87 21.9261 135.639 21.9261C134.815 21.9261 134.086 22.1013 133.452 22.4517C132.827 22.8021 132.334 23.3134 131.974 23.9858C131.624 24.6487 131.444 25.4489 131.435 26.3864ZM150.344 39V17.1818H156.396V39H150.344ZM153.384 14.3693C152.485 14.3693 151.713 14.071 151.069 13.4744C150.434 12.8684 150.117 12.1439 150.117 11.3011C150.117 10.4678 150.434 9.75284 151.069 9.15625C151.713 8.55019 152.485 8.24716 153.384 8.24716C154.284 8.24716 155.051 8.55019 155.685 9.15625C156.329 9.75284 156.651 10.4678 156.651 11.3011C156.651 12.1439 156.329 12.8684 155.685 13.4744C155.051 14.071 154.284 14.3693 153.384 14.3693ZM167.294 9.90909V39H161.243V9.90909H167.294ZM178.192 9.90909V39H172.141V9.90909H178.192Z" fill="white"/>
<path d="M35.226 13.9856C34.694 11.2992 31.768 10.3056 29.754 9.9376C29.868 10.3424 29.906 10.7104 29.906 11.152C29.906 11.9984 29.678 12.808 29.298 13.544C30.438 13.8016 31.464 14.2432 31.54 14.6848C31.578 14.9424 31.54 15.0896 31.426 15.2C30.78 15.9728 28.614 16.488 27.018 16.488H22.002C20.406 16.488 18.24 15.9728 17.594 15.2C17.48 15.0528 17.404 14.9424 17.48 14.6848C17.556 14.2064 18.582 13.8016 19.722 13.544C19.342 12.8448 19.114 12.0352 19.114 11.152C19.114 10.7472 19.152 10.3424 19.266 9.9376C17.252 10.3056 14.326 11.2992 13.794 13.9856C13.528 15.2736 13.87 16.488 14.706 17.4816C15.998 18.9904 18.164 19.616 19.836 19.8736C19.342 21.1984 18.392 23.9216 17.67 26.2768C15.694 26.24 12.236 26.1664 10.944 26.2032C10.222 26.2032 9.538 26.4976 9.006 27.0128C7.828 28.1904 7.22 31.2816 7.22 36.2128L3.838 37.9056C2.774 38.4208 2.356 39.7088 2.926 40.7392C3.306 41.4752 4.066 41.88 4.864 41.88C5.206 41.88 5.548 41.8064 5.852 41.6224L21.318 33.8208C23.294 32.9744 24.396 31.8336 24.852 30.6928C25.726 28.6688 27.778 22.3392 28.538 19.9472C30.21 19.7632 32.794 19.1744 34.276 17.4816C35.15 16.488 35.454 15.2736 35.226 13.9856ZM11.666 34.0048C11.742 32.496 11.894 31.208 12.084 30.3984C14.06 30.4352 17.404 30.472 18.582 30.5088L11.666 34.0048Z" fill="white"/>
<path d="M24.51 15.384C26.9235 15.384 28.88 13.4893 28.88 11.152C28.88 8.81473 26.9235 6.92 24.51 6.92C22.0965 6.92 20.14 8.81473 20.14 11.152C20.14 13.4893 22.0965 15.384 24.51 15.384Z" fill="white"/>
<path d="M22.04 11.9355C22.7221 13.375 24.3609 15.3646 26.98 12.6774L22.04 11.9355Z" fill="#E04B0B" stroke="#E04B0B" stroke-linecap="round"/>
</svg>
